#!OML:ASF I:\Actors\actors\Patient Classification 1\Patient 1\Session 1\Subject1.ASF
:FULLY-SPECIFIED
:DEGREES
760
root 0.102644 17.5438 9.2497 8.76909 52.764 -12.5223
lowerback 6.29367 8.2146 8.65184
upperback -10.0868 12.2081 -3.07544
thorax -12.1231 4.97127 -9.94941
lowerneck -1.91178 15.2859 12.9661
upperneck 9.17178 20.1734 -2.30255
head 4.58751 10.3077 -1.46303
rclavicle 5.69394e-014 0
rhumerus -10.9191 38.2926 -102.429
rradius 134.873
rwrist 13.9684
rhand 18.0687 -28.3559
rfingers 7.12502
rthumb 42.7319 -52.6959
lclavicle 5.69394e-014 0
lhumerus -28.6736 -30.7137 103.728
lradius 139.748
lwrist 12.1857
lhand -5.24231 -25.0182
lfingers 7.12502
lthumb 20.5606 3.91293
rfemur -4.55182 4.13669 33.8515
rtibia 4.00096
rfoot -36.9499 -48.8359
rtoes 35.6032
lfemur -28.0961 -41.6885 10.9887
ltibia -0.0928106
lfoot -1.79317 10.5361
ltoes -27.1945
761
root 0.106993 17.5426 9.26771 8.35216 53.3714 -12.4347
lowerback 5.51728 8.28771 9.27019
upperback -10.3653 12.3512 -2.99862
thorax -11.8539 5.01945 -10.0778
lowerneck -2.16727 15.1506 13.0314
upperneck 9.41779 19.9529 -2.21307
head 4.68683 10.2083 -1.43396
rclavicle 1.5768e-013 1.39149e-014
rhumerus -11.1535 38.1535 -102.924
rradius 134.846
rwrist 13.8763
rhand 18.2098 -28.5219
rfingers 7.12502
rthumb 42.8639 -52.8157
lclavicle 1.5768e-013 1.39149e-014
lhumerus -28.778 -30.6778 103.992
lradius 139.422
lwrist 12.2236
lhand -5.15912 -25.3616
lfingers 7.12502
lthumb 20.6405 3.56096
rfemur -3.78164 4.60128 33.9607
rtibia 3.57609
rfoot -38.3323 -49.504
rtoes 36.2918
lfemur -27.5671 -41.2776 10.1226
ltibia 0.0196547
lfoot -1.87676 9.25213
ltoes -27.0951
762
root 0.109267 17.5416 9.28399 7.8604 53.8925 -12.4755
lowerback 4.80504 8.30009 9.43902
upperback -10.7014 12.4019 -2.58861
thorax -11.8733 5.05446 -9.62977
lowerneck -2.06763 15.0971 13.1416
upperneck 9.6402 19.9155 -2.36895
head 4.76505 10.1947 -1.49142
rclavicle 5.82066e-014 -1.31198e-014
rhumerus -11.6008 38.3267 -103.174
rradius 134.824
rwrist 13.6272
rhand 18.4339 -28.4856
rfingers 7.12502
rthumb 43.0735 -52.7055
lclavicle 5.82066e-014 -1.31198e-014
lhumerus -28.9725 -29.9007 104.549
lradius 138.893
lwrist 12.2993
lhand -4.77371 -25.8201
lfingers 7.12502
lthumb 21.0108 3.06181
rfemur -3.00438 5.28156 34.1953
rtibia 3.10161
rfoot -39.7794 -50.2354
rtoes 37.1438
lfemur -27.0054 -40.9109 9.41996
ltibia 0.0424606
lfoot -1.91838 8.17652
ltoes -26.7634
763
root 0.107745 17.5405 9.29916 7.36149 54.3382 -12.4743
lowerback 4.32876 8.23536 9.1002
upperback -11.1161 12.359 -1.92236
thorax -12.3054 5.06825 -8.70477
lowerneck -1.77986 15.0728 12.9952
upperneck 9.91081 19.9406 -2.31332
head 4.78591 10.2184 -1.46798
rclavicle 3.44022e-014 -2.78299e-015
rhumerus -12.3919 38.7294 -103.451
rradius 134.873
rwrist 13.0528
rhand 18.7862 -28.8316
rfingers 7.12502
rthumb 43.4027 -52.9336
lclavicle 3.44022e-014 -2.78299e-015
lhumerus -29.3647 -28.6501 105.235
lradius 138.677
lwrist 12.12
lhand -4.25986 -25.8004
lfingers 7.12502
lthumb 21.5044 3.02589
rfemur -2.17691 6.10842 34.4338
rtibia 2.62372
rfoot -41.5608 -50.8771
rtoes 38.2673
lfemur -26.3286 -40.4982 8.65209
ltibia 0.021212
lfoot -2.01883 7.12699
ltoes -26.13
764
root 0.101655 17.5372 9.30982 6.95298 54.7772 -12.3997
lowerback 3.82825 8.5617 10.2115
upperback -11.2645 12.8356 -2.35844
thorax -11.7705 5.22268 -9.68165
lowerneck -2.3873 14.7379 13.2933
upperneck 9.99071 19.3572 -2.03692
head 4.86755 9.94818 -1.42826
rclavicle -7.78615e-014 -3.97569e-014
rhumerus -11.6758 37.792 -103.189
rradius 134.784
rwrist 12.8233
rhand 19.0083 -29.1367
rfingers 7.12502
rthumb 43.6101 -53.1635
lclavicle -7.78615e-014 -3.97569e-014
lhumerus -28.9336 -29.366 104.761
lradius 138.538
lwrist 12.3005
lhand -3.86254 -25.473
lfingers 7.12502
lthumb 21.886 3.30915
rfemur -1.44448 6.78059 34.6177
rtibia 2.2165
rfoot -43.2013 -51.3611
rtoes 39.1676
lfemur -25.7476 -39.949 7.85604
ltibia 0.0716851
lfoot -2.14376 5.91076
ltoes -25.734
765
root 0.0902575 17.5325 9.31722 6.71981 55.1691 -12.194
lowerback 3.46125 8.69142 10.7141
upperback -11.4748 13.0416 -2.43205
thorax -11.6431 5.28601 -9.9786
lowerneck -2.6377 14.5665 13.4702
upperneck 10.194 19.0741 -1.92717
head 4.95759 9.82316 -1.41644
rclavicle -8.32162e-014 -4.73108e-014
rhumerus -11.3483 37.5074 -103.021
rradius 134.576
rwrist 12.9867
rhand 19.0022 -28.7406
rfingers 7.12502
rthumb 43.6044 -52.7695
lclavicle -8.32162e-014 -4.73108e-014
lhumerus -28.9248 -29.9145 104.438
lradius 138.593
lwrist 12.4556
lhand -4.35071 -25.6573
lfingers 7.12502
lthumb 21.4171 3.17895
rfemur -0.842625 7.23298 34.6966
rtibia 1.86921
rfoot -44.237 -51.8633
rtoes 39.6364
lfemur -25.339 -39.4486 7.11327
ltibia 0.21322
lfoot -2.23435 4.78521
ltoes -25.5383
766
root 0.0740675 17.5284 9.32448 6.63231 55.4883 -11.8895
lowerback 3.1524 8.75339 10.8476
upperback -11.6889 13.1399 -2.36873
thorax -11.6815 5.323 -9.94897
lowerneck -2.70567 14.5042 13.4294
upperneck 10.2968 18.96 -1.67894
head 4.96479 9.78097 -1.34243
rclavicle -2.59414e-014 6.75868e-015
rhumerus -11.2016 37.4277 -102.914
rradius 134.464
rwrist 13.0499
rhand 18.9022 -28.4685
rfingers 7.12502
rthumb 43.5111 -52.5313
lclavicle -2.59414e-014 6.75868e-015
lhumerus -28.9959 -30.4639 104.015
lradius 138.875
lwrist 12.5057
lhand -5.02716 -25.6893
lfingers 7.12502
lthumb 20.7673 3.21938
rfemur -0.344623 7.69752 34.718
rtibia 1.59182
rfoot -45.2671 -52.3314
rtoes 40.0789
lfemur -25.0493 -39.0882 6.4646
ltibia 0.385743
lfoot -2.34037 3.94449
ltoes -25.4041
767
root 0.0548359 17.5243 9.33246 6.53283 55.772 -11.7222
lowerback 2.84518 8.90583 11.0038
upperback -11.9239 13.3533 -2.42025
thorax -11.6862 5.41138 -10.0585
lowerneck -2.8003 14.4009 13.3776
upperneck 10.2949 18.7505 -1.11704
head 4.90604 9.70431 -1.18971
rclavicle -7.43455e-014 -3.93594e-014
rhumerus -11.0977 37.022 -102.866
rradius 134.469
rwrist 13.0698
rhand 18.953 -28.3725
rfingers 7.12502
rthumb 43.5585 -52.4181
lclavicle -7.43455e-014 -3.93594e-014
lhumerus -29.0147 -30.9197 103.905
lradius 139.041
lwrist 12.3655
lhand -5.37127 -25.4142
lfingers 7.12502
lthumb 20.4367 3.53034
rfemur 0.0139195 8.20135 34.8232
rtibia 1.38197
rfoot -46.4756 -52.6625
rtoes 40.5389
lfemur -24.8869 -38.7037 6.04644
ltibia 0.512232
lfoot -2.48211 3.23773
ltoes -25.2134
768
root 0.033913 17.5195 9.34106 6.46165 56.0155 -11.6519
lowerback 2.51886 9.10616 11.1461
upperback -12.1766 13.6214 -2.5514
thorax -11.6692 5.52615 -10.2431
lowerneck -2.88952 14.1422 13.4994
upperneck 10.3118 18.3532 -0.836882
head 4.88414 9.52929 -1.15472
rclavicle -2.46741e-014 -3.53837e-014
rhumerus -11.0398 36.4389 -102.896
rradius 134.483
rwrist 13.2546
rhand 19.0311 -28.1784
rfingers 7.12502
rthumb 43.6314 -52.1974
lclavicle -2.46741e-014 -3.53837e-014
lhumerus -29.1342 -31.1591 104.232
lradius 138.86
lwrist 12.3092
lhand -5.47799 -25.4768
lfingers 7.12502
lthumb 20.3341 3.47864
rfemur 0.227635 8.63033 34.9494
rtibia 1.19617
rfoot -47.513 -52.8792
rtoes 41.0042
lfemur -24.8938 -38.5124 5.91332
ltibia 0.588693
lfoot -2.52844 2.80735
ltoes -25.1863
769
root 0.0124177 17.5146 9.35108 6.39776 56.2154 -11.6319
lowerback 2.09519 9.14138 11.1883
upperback -12.2976 13.6476 -2.45152
thorax -11.5705 5.55629 -10.0837
lowerneck -2.85087 14.1137 13.4894
upperneck 10.2251 18.3169 -0.811704
head 4.84492 9.51065 -1.15673
rclavicle -5.37216e-014 -3.24019e-014
rhumerus -11.0156 36.4579 -102.942
rradius 134.492
rwrist 13.2801
rhand 19.0986 -28.2679
rfingers 7.12502
rthumb 43.6945 -52.2638
lclavicle -5.37216e-014 -3.24019e-014
lhumerus -29.1475 -30.6348 104.636
lradius 138.481
lwrist 12.3685
lhand -4.75088 -25.7147
lfingers 7.12502
lthumb 21.0327 3.16475
rfemur 0.380641 8.95662 35.0837
rtibia 1.02884
rfoot -48.3178 -52.9809
rtoes 41.4858
lfemur -24.9629 -38.5465 5.94102
ltibia 0.64035
lfoot -2.49656 2.6466
ltoes -25.8582
